<svg width="40" height="40" viewBox="0 0 40 40" fill="none" xmlns="http://www.w3.org/2000/svg">
<path d="M16.252 17.1024C16.4121 17.3513 16.6252 17.5612 16.8758 17.7169C17.1264 17.8725 17.4082 17.9701 17.7008 18.0024C17.9947 18.0324 18.2916 17.9959 18.5697 17.8956C18.8478 17.7952 19.1002 17.6336 19.3085 17.4224L21.5512 15.1424L24.1909 19.1424C24.3752 19.4102 24.6216 19.6285 24.9087 19.7783C25.1958 19.9282 25.5149 20.0052 25.8382 20.0024C26.2284 20.0069 26.6102 19.888 26.9298 19.6624C27.3649 19.3692 27.6674 18.9146 27.7715 18.3977C27.8755 17.8808 27.7728 17.3434 27.4855 16.9024L23.5161 10.9024C23.3559 10.6535 23.1428 10.4437 22.8922 10.288C22.6417 10.1323 22.3598 10.0348 22.0672 10.0024C21.7733 9.97246 21.4765 10.009 21.1983 10.1093C20.9202 10.2097 20.6678 10.3713 20.4596 10.5824L18.2169 12.8624L15.5772 8.86244C15.4466 8.61721 15.2668 8.40213 15.049 8.23096C14.8313 8.05978 14.5805 7.93628 14.3127 7.86835C14.0449 7.80041 13.766 7.78954 13.4938 7.83643C13.2216 7.88332 12.9621 7.98693 12.7319 8.14065C12.5017 8.29437 12.3058 8.4948 12.1569 8.72914C12.0079 8.96347 11.9092 9.22655 11.8669 9.50155C11.8246 9.77655 11.8397 10.0574 11.9113 10.3262C11.9829 10.595 12.1093 10.8457 12.2825 11.0624L16.252 17.1024ZM37.7465 24.0024H35.7618V4.00244H37.7465C38.2729 4.00244 38.7777 3.79173 39.1499 3.41666C39.5221 3.04158 39.7312 2.53287 39.7312 2.00244C39.7312 1.47201 39.5221 0.9633 39.1499 0.588228C38.7777 0.213155 38.2729 0.00244141 37.7465 0.00244141H2.02153C1.49515 0.00244141 0.990323 0.213155 0.618116 0.588228C0.245908 0.9633 0.0368042 1.47201 0.0368042 2.00244C0.0368042 2.53287 0.245908 3.04158 0.618116 3.41666C0.990323 3.79173 1.49515 4.00244 2.02153 4.00244H4.00625V24.0024H2.02153C1.49515 24.0024 0.990323 24.2132 0.618116 24.5882C0.245908 24.9633 0.0368042 25.472 0.0368042 26.0024C0.0368042 26.5329 0.245908 27.0416 0.618116 27.4167C0.990323 27.7917 1.49515 28.0024 2.02153 28.0024H17.8993V30.3024L8.86882 36.3024C8.49834 36.5335 8.21362 36.8811 8.05859 37.2914C7.90356 37.7017 7.88684 38.1521 8.01101 38.5729C8.13517 38.9938 8.39333 39.3618 8.74563 39.6201C9.09794 39.8785 9.52482 40.0128 9.96041 40.0024C10.3506 40.0069 10.7324 39.888 11.052 39.6624L17.8993 35.1024V38.0024C17.8993 38.5329 18.1084 39.0416 18.4806 39.4167C18.8528 39.7917 19.3576 40.0024 19.884 40.0024C20.4104 40.0024 20.9152 39.7917 21.2874 39.4167C21.6596 39.0416 21.8687 38.5329 21.8687 38.0024V35.1024L28.716 39.6624C29.0357 39.888 29.4174 40.0069 29.8076 40.0024C30.2317 39.9991 30.6435 39.8591 30.9828 39.6028C31.3221 39.3465 31.571 38.9874 31.693 38.5782C31.8151 38.1689 31.8039 37.7311 31.661 37.3287C31.5182 36.9264 31.2512 36.5808 30.8992 36.3424L21.8687 30.3424V28.0024H37.7465C38.2729 28.0024 38.7777 27.7917 39.1499 27.4167C39.5221 27.0416 39.7312 26.5329 39.7312 26.0024C39.7312 25.472 39.5221 24.9633 39.1499 24.5882C38.7777 24.2132 38.2729 24.0024 37.7465 24.0024ZM31.7924 24.0024H7.97569V4.00244H31.7924V24.0024Z" fill="#C81F56"/>
</svg>
