<svg width="41" height="40" viewBox="0 0 41 40" fill="none" xmlns="http://www.w3.org/2000/svg">
<path d="M16.1952 22.0024H2.3021C1.77572 22.0024 1.2709 22.2132 0.898694 22.5882C0.526487 22.9633 0.317383 23.472 0.317383 24.0024V38.0024C0.317383 38.5329 0.526487 39.0416 0.898694 39.4167C1.2709 39.7917 1.77572 40.0024 2.3021 40.0024H16.1952C16.7215 40.0024 17.2264 39.7917 17.5986 39.4167C17.9708 39.0416 18.1799 38.5329 18.1799 38.0024V24.0024C18.1799 23.472 17.9708 22.9633 17.5986 22.5882C17.2264 22.2132 16.7215 22.0024 16.1952 22.0024ZM14.2104 36.0024H4.28683V26.0024H14.2104V36.0024ZM38.0271 0.00244141H24.134C23.6077 0.00244141 23.1028 0.213155 22.7306 0.588228C22.3584 0.9633 22.1493 1.47201 22.1493 2.00244V16.0024C22.1493 16.5329 22.3584 17.0416 22.7306 17.4167C23.1028 17.7917 23.6077 18.0024 24.134 18.0024H38.0271C38.5535 18.0024 39.0583 17.7917 39.4305 17.4167C39.8027 17.0416 40.0118 16.5329 40.0118 16.0024V2.00244C40.0118 1.47201 39.8027 0.9633 39.4305 0.588228C39.0583 0.213155 38.5535 0.00244141 38.0271 0.00244141ZM36.0424 14.0024H26.1188V4.00244H36.0424V14.0024ZM38.0271 22.0024H24.134C23.6077 22.0024 23.1028 22.2132 22.7306 22.5882C22.3584 22.9633 22.1493 23.472 22.1493 24.0024V38.0024C22.1493 38.5329 22.3584 39.0416 22.7306 39.4167C23.1028 39.7917 23.6077 40.0024 24.134 40.0024H38.0271C38.5535 40.0024 39.0583 39.7917 39.4305 39.4167C39.8027 39.0416 40.0118 38.5329 40.0118 38.0024V24.0024C40.0118 23.472 39.8027 22.9633 39.4305 22.5882C39.0583 22.2132 38.5535 22.0024 38.0271 22.0024ZM36.0424 36.0024H26.1188V26.0024H36.0424V36.0024ZM16.1952 0.00244141H2.3021C1.77572 0.00244141 1.2709 0.213155 0.898694 0.588228C0.526487 0.9633 0.317383 1.47201 0.317383 2.00244V16.0024C0.317383 16.5329 0.526487 17.0416 0.898694 17.4167C1.2709 17.7917 1.77572 18.0024 2.3021 18.0024H16.1952C16.7215 18.0024 17.2264 17.7917 17.5986 17.4167C17.9708 17.0416 18.1799 16.5329 18.1799 16.0024V2.00244C18.1799 1.47201 17.9708 0.9633 17.5986 0.588228C17.2264 0.213155 16.7215 0.00244141 16.1952 0.00244141ZM14.2104 14.0024H4.28683V4.00244H14.2104V14.0024Z" fill="#C81F56"/>
</svg>
