<svg width="41" height="40" viewBox="0 0 41 40" fill="none" xmlns="http://www.w3.org/2000/svg">
<path d="M38.2734 32.5276V19.444C38.8087 19.144 39.2676 18.7228 39.6139 18.2138C39.9603 17.7047 40.1847 17.1216 40.2695 16.5103C40.3543 15.899 40.2972 15.2762 40.1026 14.691C39.9081 14.1057 39.5814 13.5739 39.1483 13.1375C38.7151 12.701 38.1874 12.3718 37.6066 12.1758C37.0258 11.9797 36.4078 11.9221 35.8012 12.0076C35.1946 12.093 34.6159 12.3192 34.1107 12.6682C33.6056 13.0173 33.1877 13.4797 32.8899 14.0191H26.3981V7.47728C26.9334 7.17725 27.3923 6.75613 27.7386 6.24707C28.085 5.738 28.3094 5.15489 28.3942 4.5436C28.479 3.93231 28.4219 3.30953 28.2273 2.72426C28.0328 2.139 27.7061 1.60721 27.273 1.17076C26.8398 0.734315 26.3121 0.405104 25.7313 0.209039C25.1505 0.0129728 24.5325 -0.0445984 23.9259 0.0408553C23.3193 0.126309 22.7406 0.352456 22.2354 0.701501C21.7303 1.05055 21.3124 1.51296 21.0146 2.05237H8.03096C7.73322 1.51296 7.31532 1.05055 6.81014 0.701501C6.30497 0.352456 5.72631 0.126309 5.11969 0.0408553C4.51307 -0.0445984 3.89504 0.0129728 3.31425 0.209039C2.73345 0.405104 2.20573 0.734315 1.77262 1.17076C1.3395 1.60721 1.01281 2.139 0.818239 2.72426C0.623671 3.30953 0.56654 3.93231 0.651341 4.5436C0.736142 5.15489 0.960561 5.738 1.30694 6.24707C1.65332 6.75613 2.1122 7.17725 2.64749 7.47728V20.5609C2.1122 20.8609 1.65332 21.282 1.30694 21.7911C0.960561 22.3002 0.736142 22.8833 0.651341 23.4946C0.56654 24.1059 0.623671 24.7286 0.818239 25.3139C1.01281 25.8992 1.3395 26.431 1.77262 26.8674C2.20573 27.3039 2.73345 27.6331 3.31425 27.8291C3.89504 28.0252 4.51307 28.0828 5.11969 27.9973C5.72631 27.9119 6.30497 27.6857 6.81014 27.3367C7.31532 26.9876 7.73322 26.5252 8.03096 25.9858H14.5228V32.5276C13.9875 32.8276 13.5286 33.2488 13.1822 33.7578C12.8359 34.2669 12.6114 34.85 12.5266 35.4613C12.4418 36.0726 12.499 36.6954 12.6935 37.2806C12.8881 37.8659 13.2148 38.3977 13.6479 38.8341C14.081 39.2706 14.6088 39.5998 15.1895 39.7958C15.7703 39.9919 16.3884 40.0495 16.995 39.964C17.6016 39.8786 18.1803 39.6524 18.6854 39.3034C19.1906 38.9543 19.6085 38.4919 19.9063 37.9525H32.8899C33.1877 38.4919 33.6056 38.9543 34.1107 39.3034C34.6159 39.6524 35.1946 39.8786 35.8012 39.964C36.4078 40.0495 37.0258 39.9919 37.6066 39.7958C38.1874 39.5998 38.7151 39.2706 39.1483 38.8341C39.5814 38.3977 39.9081 37.8659 40.1026 37.2806C40.2972 36.6954 40.3543 36.0726 40.2695 35.4613C40.1847 34.85 39.9603 34.2669 39.6139 33.7578C39.2676 33.2488 38.8087 32.8276 38.2734 32.5276ZM12.5436 16.0135C12.5477 16.7097 12.7326 17.3926 13.0798 17.9944C13.4271 18.5962 13.9245 19.0959 14.5228 19.444V21.9969H8.03096C7.69365 21.3971 7.20113 20.9008 6.60592 20.5609V7.47728C7.20113 7.13737 7.69365 6.64107 8.03096 6.04127H21.0146C21.3519 6.64107 21.8444 7.13737 22.4397 7.47728V14.0191H19.9063C19.4655 13.2703 18.7937 12.6875 17.9935 12.3594C17.1933 12.0313 16.3085 11.9761 15.4742 12.2021C14.6399 12.4281 13.9019 12.9229 13.3727 13.6111C12.8436 14.2993 12.5524 15.143 12.5436 16.0135ZM22.4397 18.008V20.5609C21.8444 20.9008 21.3519 21.3971 21.0146 21.9969H18.4812V19.444C19.0764 19.1041 19.5689 18.6078 19.9063 18.008H22.4397ZM34.315 32.5276C33.7197 32.8675 33.2272 33.3638 32.8899 33.9636H19.9063C19.5689 33.3638 19.0764 32.8675 18.4812 32.5276V25.9858H21.0146C21.3124 26.5252 21.7303 26.9876 22.2354 27.3367C22.7406 27.6857 23.3193 27.9119 23.9259 27.9973C24.5325 28.0828 25.1505 28.0252 25.7313 27.8291C26.3121 27.6331 26.8398 27.3039 27.273 26.8674C27.7061 26.431 28.0328 25.8992 28.2273 25.3139C28.4219 24.7286 28.479 24.1059 28.3942 23.4946C28.3094 22.8833 28.085 22.3002 27.7386 21.7911C27.3923 21.282 26.9334 20.8609 26.3981 20.5609V18.008H32.8899C33.2272 18.6078 33.7197 19.1041 34.315 19.444V32.5276Z" fill="#C81F56"/>
</svg>
