<svg width="30" height="30" viewBox="0 0 30 30" fill="none" xmlns="http://www.w3.org/2000/svg">
<path d="M19.5001 13.5H16.5001V7.5C16.5001 7.10217 16.342 6.72064 16.0607 6.43934C15.7794 6.15803 15.3979 6 15.0001 6C14.6022 6 14.2207 6.15803 13.9394 6.43934C13.6581 6.72064 13.5001 7.10217 13.5001 7.5V15C13.5001 15.3978 13.6581 15.7794 13.9394 16.0607C14.2207 16.342 14.6022 16.5 15.0001 16.5H19.5001C19.8979 16.5 20.2794 16.342 20.5607 16.0607C20.842 15.7794 21.0001 15.3978 21.0001 15C21.0001 14.6022 20.842 14.2206 20.5607 13.9393C20.2794 13.658 19.8979 13.5 19.5001 13.5ZM15.0001 0C12.0333 0 9.13325 0.879734 6.66651 2.52796C4.19978 4.17618 2.27719 6.51885 1.14187 9.25974C0.00656029 12.0006 -0.29049 15.0166 0.288289 17.9263C0.867067 20.8361 2.29568 23.5088 4.39347 25.6066C6.49125 27.7044 9.164 29.133 12.0737 29.7118C14.9834 30.2905 17.9994 29.9935 20.7403 28.8582C23.4812 27.7229 25.8239 25.8003 27.4721 23.3335C29.1203 20.8668 30.0001 17.9667 30.0001 15C30.0001 13.0302 29.6121 11.0796 28.8583 9.25974C28.1044 7.43986 26.9995 5.78628 25.6067 4.3934C24.2138 3.00052 22.5602 1.89563 20.7403 1.14181C18.9204 0.387986 16.9699 0 15.0001 0ZM15.0001 27C12.6267 27 10.3066 26.2962 8.33322 24.9776C6.35983 23.659 4.82176 21.7849 3.91351 19.5922C3.00526 17.3995 2.76762 14.9867 3.23064 12.6589C3.69367 10.3311 4.83656 8.19295 6.51479 6.51472C8.19302 4.83649 10.3312 3.6936 12.659 3.23058C14.9868 2.76755 17.3996 3.00519 19.5923 3.91344C21.785 4.8217 23.6591 6.35977 24.9777 8.33315C26.2963 10.3065 27.0001 12.6266 27.0001 15C27.0001 18.1826 25.7358 21.2348 23.4853 23.4853C21.2349 25.7357 18.1827 27 15.0001 27Z" fill="#F5FA72"/>
</svg>
