<svg width="41" height="40" viewBox="0 0 41 40" fill="none" xmlns="http://www.w3.org/2000/svg">
<path d="M23.7732 14.5479H16.556C16.0775 14.5479 15.6186 14.7395 15.2802 15.0804C14.9418 15.4214 14.7517 15.8839 14.7517 16.3661V38.1843C14.7517 38.6665 14.9418 39.1289 15.2802 39.4699C15.6186 39.8109 16.0775 40.0024 16.556 40.0024H23.7732C24.2517 40.0024 24.7106 39.8109 25.049 39.4699C25.3874 39.1289 25.5775 38.6665 25.5775 38.1843V16.3661C25.5775 15.8839 25.3874 15.4214 25.049 15.0804C24.7106 14.7395 24.2517 14.5479 23.7732 14.5479ZM21.9689 36.3661H18.3603V18.1843H21.9689V36.3661ZM38.2075 0.00244141H30.9904C30.5118 0.00244141 30.0529 0.193999 29.7145 0.534974C29.3762 0.87595 29.1861 1.33841 29.1861 1.82062V38.1843C29.1861 38.6665 29.3762 39.1289 29.7145 39.4699C30.0529 39.8109 30.5118 40.0024 30.9904 40.0024H38.2075C38.6861 40.0024 39.145 39.8109 39.4834 39.4699C39.8217 39.1289 40.0118 38.6665 40.0118 38.1843V1.82062C40.0118 1.33841 39.8217 0.87595 39.4834 0.534974C39.145 0.193999 38.6861 0.00244141 38.2075 0.00244141ZM36.4032 36.3661H32.7947V3.63881H36.4032V36.3661ZM9.33885 25.457H2.12168C1.64315 25.457 1.18422 25.6485 0.845848 25.9895C0.507477 26.3305 0.317383 26.793 0.317383 27.2752V38.1843C0.317383 38.6665 0.507477 39.1289 0.845848 39.4699C1.18422 39.8109 1.64315 40.0024 2.12168 40.0024H9.33885C9.81738 40.0024 10.2763 39.8109 10.6147 39.4699C10.953 39.1289 11.1431 38.6665 11.1431 38.1843V27.2752C11.1431 26.793 10.953 26.3305 10.6147 25.9895C10.2763 25.6485 9.81738 25.457 9.33885 25.457ZM7.53455 36.3661H3.92597V29.0934H7.53455V36.3661Z" fill="#C81F56"/>
</svg>
