<svg width="41" height="28" viewBox="0 0 41 28" fill="none" xmlns="http://www.w3.org/2000/svg">
<path d="M20.4604 0.00244141C19.9341 0.00244141 19.4292 0.213155 19.057 0.588228C18.6848 0.963301 18.4757 1.47201 18.4757 2.00244V26.0024C18.4757 26.5329 18.6848 27.0416 19.057 27.4167C19.4292 27.7917 19.9341 28.0024 20.4604 28.0024C20.9868 28.0024 21.4916 27.7917 21.8639 27.4167C22.2361 27.0416 22.4452 26.5329 22.4452 26.0024V2.00244C22.4452 1.47201 22.2361 0.963301 21.8639 0.588228C21.4916 0.213155 20.9868 0.00244141 20.4604 0.00244141ZM17.9002 12.5824L12.9383 7.58244C12.5646 7.20583 12.0577 6.99426 11.5292 6.99426C11.0007 6.99426 10.4938 7.20583 10.12 7.58244C9.74631 7.95905 9.53635 8.46984 9.53635 9.00244C9.53635 9.26616 9.5879 9.5273 9.68805 9.77094C9.7882 10.0146 9.93499 10.236 10.12 10.4224L11.7078 12.0024H2.59794C2.07156 12.0024 1.56674 12.2132 1.19453 12.5882C0.822324 12.9633 0.61322 13.472 0.61322 14.0024C0.61322 14.5329 0.822324 15.0416 1.19453 15.4167C1.56674 15.7917 2.07156 16.0024 2.59794 16.0024H11.7078L10.12 17.5824C9.93401 17.7684 9.78636 17.9896 9.6856 18.2333C9.58484 18.477 9.53296 18.7384 9.53296 19.0024C9.53296 19.2665 9.58484 19.5279 9.6856 19.7716C9.78636 20.0153 9.93401 20.2365 10.12 20.4224C10.3045 20.6099 10.5241 20.7587 10.7659 20.8602C11.0078 20.9618 11.2672 21.014 11.5292 21.014C11.7912 21.014 12.0506 20.9618 12.2925 20.8602C12.5343 20.7587 12.7538 20.6099 12.9383 20.4224L17.9002 15.4224C18.0808 15.2322 18.2225 15.0079 18.3169 14.7624C18.4219 14.523 18.4762 14.2642 18.4762 14.0024C18.4762 13.7407 18.4219 13.4818 18.3169 13.2424C18.2225 12.9969 18.0808 12.7726 17.9002 12.5824ZM38.3229 12.0024H29.2131L30.8008 10.4224C30.9859 10.236 31.1327 10.0146 31.2328 9.77094C31.333 9.5273 31.3845 9.26616 31.3845 9.00244C31.3845 8.73872 31.333 8.47759 31.2328 8.23394C31.1327 7.9903 30.9859 7.76892 30.8008 7.58244C30.6158 7.39596 30.3961 7.24804 30.1543 7.14712C29.9125 7.0462 29.6534 6.99426 29.3917 6.99426C29.13 6.99426 28.8708 7.0462 28.6291 7.14712C28.3873 7.24804 28.1676 7.39596 27.9825 7.58244L23.0207 12.5824C22.8347 12.7684 22.6871 12.9896 22.5863 13.2333C22.4855 13.477 22.4337 13.7384 22.4337 14.0024C22.4337 14.2665 22.4855 14.5279 22.5863 14.7716C22.6871 15.0153 22.8347 15.2365 23.0207 15.4224L27.9825 20.4224C28.167 20.6099 28.3866 20.7587 28.6284 20.8602C28.8703 20.9618 29.1297 21.014 29.3917 21.014C29.6537 21.014 29.9131 20.9618 30.155 20.8602C30.3968 20.7587 30.6163 20.6099 30.8008 20.4224C30.9869 20.2365 31.1345 20.0153 31.2353 19.7716C31.336 19.5279 31.3879 19.2665 31.3879 19.0024C31.3879 18.7384 31.336 18.477 31.2353 18.2333C31.1345 17.9896 30.9869 17.7684 30.8008 17.5824L29.2131 16.0024H38.3229C38.8493 16.0024 39.3541 15.7917 39.7264 15.4167C40.0986 15.0416 40.3077 14.5329 40.3077 14.0024C40.3077 13.472 40.0986 12.9633 39.7264 12.5882C39.3541 12.2132 38.8493 12.0024 38.3229 12.0024Z" fill="#C81F56"/>
</svg>
