<svg width="40" height="32" viewBox="0 0 40 32" fill="none" xmlns="http://www.w3.org/2000/svg">
<path d="M2.01388 16.0024H13.9222C14.4486 16.0024 14.9534 15.7917 15.3256 15.4167C15.6978 15.0416 15.9069 14.5329 15.9069 14.0024V2.00244C15.9069 1.47201 15.6978 0.963301 15.3256 0.588228C14.9534 0.213155 14.4486 0.00244141 13.9222 0.00244141H2.01388C1.4875 0.00244141 0.982679 0.213155 0.610471 0.588228C0.238264 0.963301 0.0291595 1.47201 0.0291595 2.00244V14.0024C0.0291595 14.5329 0.238264 15.0416 0.610471 15.4167C0.982679 15.7917 1.4875 16.0024 2.01388 16.0024ZM3.9986 4.00244H11.9375V12.0024H3.9986V4.00244ZM21.8611 8.00244H37.7389C38.2653 8.00244 38.7701 7.79173 39.1423 7.41665C39.5145 7.04158 39.7236 6.53287 39.7236 6.00244C39.7236 5.47201 39.5145 4.9633 39.1423 4.58823C38.7701 4.21316 38.2653 4.00244 37.7389 4.00244H21.8611C21.3347 4.00244 20.8299 4.21316 20.4577 4.58823C20.0855 4.9633 19.8764 5.47201 19.8764 6.00244C19.8764 6.53287 20.0855 7.04158 20.4577 7.41665C20.8299 7.79173 21.3347 8.00244 21.8611 8.00244ZM21.8611 28.0024H2.01388C1.4875 28.0024 0.982679 28.2132 0.610471 28.5882C0.238264 28.9633 0.0291595 29.472 0.0291595 30.0024C0.0291595 30.5329 0.238264 31.0416 0.610471 31.4167C0.982679 31.7917 1.4875 32.0024 2.01388 32.0024H21.8611C22.3875 32.0024 22.8923 31.7917 23.2645 31.4167C23.6367 31.0416 23.8458 30.5329 23.8458 30.0024C23.8458 29.472 23.6367 28.9633 23.2645 28.5882C22.8923 28.2132 22.3875 28.0024 21.8611 28.0024ZM37.7389 20.0024H2.01388C1.4875 20.0024 0.982679 20.2132 0.610471 20.5882C0.238264 20.9633 0.0291595 21.472 0.0291595 22.0024C0.0291595 22.5329 0.238264 23.0416 0.610471 23.4167C0.982679 23.7917 1.4875 24.0024 2.01388 24.0024H37.7389C38.2653 24.0024 38.7701 23.7917 39.1423 23.4167C39.5145 23.0416 39.7236 22.5329 39.7236 22.0024C39.7236 21.472 39.5145 20.9633 39.1423 20.5882C38.7701 20.2132 38.2653 20.0024 37.7389 20.0024ZM37.7389 12.0024H21.8611C21.3347 12.0024 20.8299 12.2132 20.4577 12.5882C20.0855 12.9633 19.8764 13.472 19.8764 14.0024C19.8764 14.5329 20.0855 15.0416 20.4577 15.4167C20.8299 15.7917 21.3347 16.0024 21.8611 16.0024H37.7389C38.2653 16.0024 38.7701 15.7917 39.1423 15.4167C39.5145 15.0416 39.7236 14.5329 39.7236 14.0024C39.7236 13.472 39.5145 12.9633 39.1423 12.5882C38.7701 12.2132 38.2653 12.0024 37.7389 12.0024Z" fill="#C81F56"/>
</svg>
